<svg width="285" height="96" viewBox="0 0 285 96" fill="none" xmlns="http://www.w3.org/2000/svg">
<path d="M23.9359 34.9683V29.8243C22.7401 29.5094 20.9075 29.0459 18.4734 29.0459C10.8069 29.0459 6.81978 33.7301 6.81978 41.761C6.81978 49.056 11.2244 54.193 17.7906 54.193C19.9912 54.193 22.3297 53.963 23.5184 53.733L23.7059 47.9522H28.2945L28.107 56.7119C26.0409 57.4053 21.9122 58.2261 18.102 58.2261C6.58982 58.2261 1.12384 51.0655 1.12384 41.9379C1.12384 31.9328 7.82099 25.0057 18.5124 25.0057C22.5561 25.0057 26.3699 25.8796 28.5245 26.7499V34.9648H23.9359V34.9683Z" fill="white"/>
<path d="M44.6677 33.2737C53.4769 33.2737 56.3638 40.0133 56.3638 45.8896C56.3638 52.6788 52.2387 58.2296 44.0698 58.2296C35.533 58.2296 32.1932 52.3144 32.1932 46.254C32.1932 38.4531 37.3691 33.2737 44.6677 33.2737ZM44.2042 53.9135C48.8919 53.9135 50.9544 50.0148 50.9544 45.3306C50.9544 39.9673 48.1525 37.5828 44.5722 37.5828C39.4918 37.5828 37.6061 41.8459 37.6061 46.0665C37.6061 50.0572 39.5767 53.9135 44.2042 53.9135Z" fill="white"/>
<path d="M59.9052 53.9135H62.7885L62.9725 26.159H58.7979V22.3983H68.113L67.9326 53.9135H71.1414V57.6777H59.9052V53.9135Z" fill="white"/>
<path d="M73.9894 33.822H82.2856C82.1972 38.5415 82.1017 43.3176 82.1017 48.0866C82.1017 51.4334 83.6619 53.9135 86.7822 53.9135C90.1786 53.9135 92.885 51.1186 92.9346 46.6644L93.023 37.5863H89.9026V33.822H98.1635L98.0751 53.9135H101.284V57.6778H93.023C93.023 56.0751 93.161 54.4194 93.4829 52.4064H93.3874C92.4322 55.9336 88.7988 58.2297 85.0416 58.2297C79.9507 58.2297 76.9647 54.7024 76.9647 49.102C76.9647 45.2033 77.0213 41.386 77.1451 37.5863H73.9894V33.822Z" fill="white"/>
<path d="M105.137 53.9135H107.85L107.931 37.5863H104.588V33.822H113.079C113.079 35.4282 112.941 37.0768 112.612 39.0934H112.708C113.67 35.5626 116.879 33.2737 120.869 33.2737C125.603 33.2737 127.75 35.7042 128.217 38.6795H128.302C129.406 35.1947 132.438 33.2737 136.471 33.2737C141.983 33.2737 144.679 36.7974 144.679 42.4933C144.679 46.3036 144.644 50.1067 144.506 53.9135H147.619V57.6777H136.652V53.9135H139.365C139.5 50.4251 139.546 46.8979 139.546 43.4025C139.546 40.0557 137.989 37.5863 134.727 37.5863C131.239 37.5863 128.985 40.3812 128.897 44.8318L128.815 53.9135H131.84V57.6777H121.05V53.9135H123.675L123.756 44.3224C123.809 40.6536 122.843 37.5828 118.994 37.5828C115.927 37.5828 113.121 40.3777 113.083 44.8283L112.98 53.9099H116.199V57.6742H105.137V53.9135Z" fill="white"/>
<path d="M151.015 53.9135H153.711L153.81 37.5863H150.456V33.822H158.947C158.947 35.4282 158.816 37.0768 158.494 39.0934H158.583C159.545 36.0226 162.209 33.2737 166.982 33.2737C172.575 33.2737 175.285 36.7974 175.285 42.4933C175.285 46.3036 175.154 50.1067 175.105 53.9135H178.225V57.6777H167.258V53.9135H169.968C170.014 50.4251 170.148 46.8979 170.148 43.4025C170.148 40.0557 168.591 37.5863 165.333 37.5863C161.802 37.5863 159.135 40.3812 159.046 44.8318L158.866 53.9135H162.071V57.6777H151.022V53.9135H151.015Z" fill="white"/>
<path d="M183.082 35.4282C184.363 34.8339 187.438 33.2737 192.532 33.2737C199.597 33.2737 201.847 36.762 201.847 42.4013C201.847 46.2576 201.706 50.0607 201.663 53.917H204.876V57.6813H197.301C197.301 56.1671 197.439 54.3345 197.711 52.7247H197.616C196.611 55.4347 194.687 58.2296 189.688 58.2296C183.949 58.2296 182.064 54.4194 182.064 51.3945C182.064 45.1078 188.446 44.2799 192.341 44.0995L197.252 43.8164V42.0298C197.252 39.0899 196.201 37.0309 191.98 37.0309C190.186 37.0309 188.446 37.5332 187.664 37.8552V41.347H183.079V35.4282H183.082ZM191.014 54.193C195.005 54.193 197.16 51.161 197.16 48.1397V47.1739C191.846 47.2199 187.211 47.4498 187.211 50.9806C187.211 52.7672 188.577 54.193 191.014 54.193Z" fill="white"/>
<path d="M1 92.4477H4.552L4.7112 66.9009H1V65.0647H7.85281L17.8225 89.9464C17.9498 90.2789 18.1161 90.6469 18.1621 91.0325H18.2435C18.2859 90.6504 18.4522 90.2789 18.576 89.9464L28.6341 65.0647H35.349V66.9009H31.6448L31.8076 92.4477H35.3525V94.2873H25.9241V92.4477H29.6389L29.4761 68.6556H29.3948C29.3063 69.0306 29.14 69.4906 28.9738 69.8691L19.0819 94.2873H17.2033L7.39643 70.1557C7.21954 69.7877 7.06387 69.2854 6.97189 68.829H6.89405L6.7207 92.4512H10.4425V94.2909H1V92.4477Z" fill="white" stroke="white" stroke-width="0.75"/>
<path d="M56.4841 93.1694C55.1432 93.9548 52.3483 94.7897 49.6383 94.7897C42.6617 94.7897 39.1132 90.325 39.1132 83.182C39.1132 77.2632 42.4529 72.3315 48.5487 72.3315C55.6067 72.3315 57.5313 78.1335 57.5313 83.3554H41.4517C41.5366 89.4476 44.3422 92.7873 49.9673 92.7873C52.5181 92.7873 54.7753 91.9524 56.569 90.9936L56.4841 93.1694ZM55.1927 81.5157C55.1927 77.6771 53.0948 74.3339 48.4284 74.3339C43.1216 74.3339 41.4517 78.972 41.4517 81.5157H55.1927Z" fill="white" stroke="white" stroke-width="0.75"/>
<path d="M80.1134 62.192L79.9471 92.4512H83.6194V94.2909H77.6864C77.6864 93.2437 77.8633 91.3262 78.0296 89.8686H77.9447C76.8621 92.5397 74.98 94.7933 70.3914 94.7933C66.8854 94.7933 61.8722 92.5397 61.8722 84.1479C61.8722 77.2986 65.8841 72.335 72.599 72.335C74.2724 72.335 76.3633 72.756 77.9058 73.3822L77.9836 64.0317H73.2252V62.1955H80.1134V62.192ZM77.9022 75.3811C77.0248 75.0061 75.1002 74.3339 72.7228 74.3339C66.7509 74.3339 64.2072 78.4696 64.2072 84.1443C64.2072 88.6976 65.9584 92.7873 70.9645 92.7873C75.1816 92.7873 77.8173 89.3627 77.8598 83.4863L77.9022 75.3811Z" fill="white" stroke="white" stroke-width="0.75"/>
<path d="M86.3683 92.4477H90.0441L90.175 74.6735H86.0357V72.8303H92.3437L92.2163 92.4512H96.0584V94.2909H86.3683V92.4477ZM91.0878 61.8524C92.3012 61.8524 93.0937 62.8147 93.0937 64.0281C93.0937 65.2452 92.3012 66.1968 91.0878 66.1968C89.8778 66.1968 89.0818 65.2452 89.0818 64.0281C89.0818 62.8147 89.8813 61.8524 91.0878 61.8524Z" fill="white" stroke="white" stroke-width="0.75"/>
<path d="M114.802 75.0061C113.716 74.6275 112.255 74.3339 110.167 74.3339C104.694 74.3339 102.073 78.1335 102.073 83.5641C102.073 88.9841 104.694 92.7873 110.167 92.7873C113.175 92.7873 115.216 92.2425 116.673 91.5314V93.6647C115.255 94.2909 112.962 94.7897 110.086 94.7897C103.109 94.7897 99.7307 89.7023 99.7307 83.5677C99.7307 77.426 103.24 72.335 110.291 72.335C113.38 72.335 115.181 72.8798 116.804 73.4636V78.6819H114.802V75.0061Z" fill="white" stroke="white" stroke-width="0.75"/>
<path d="M140.848 94.2873H135.254C135.254 92.9076 135.463 90.8662 135.718 89.4016H135.636C134.465 92.4901 132.548 94.7897 128.624 94.7897C124.86 94.7897 121.814 92.9111 121.814 88.8214C121.814 84.8519 125.072 82.8955 129.537 82.6018L135.339 82.2268C135.385 81.5546 135.421 80.9355 135.421 80.2633C135.421 76.7998 134.462 74.3339 129.827 74.3339C127.453 74.3339 125.702 74.8787 124.821 75.1688L124.74 78.7562H122.734L122.812 73.835C123.894 73.2513 126.403 72.3315 130.163 72.3315C135.93 72.3315 137.511 75.5827 137.511 79.1772C137.511 84.2292 137.388 88.365 137.342 92.4477H140.844V94.2873H140.848ZM128.957 92.7873C130.828 92.7873 132.587 91.9134 133.627 90.5337C135.13 88.6091 135.339 87.0666 135.339 84.063C127.701 84.2717 124.152 84.5193 124.152 88.7825C124.156 91.1599 125.911 92.7873 128.957 92.7873Z" fill="white" stroke="white" stroke-width="0.75"/>
<path d="M144.909 92.4477H148.454L148.617 64.0281H143.858V62.1884H150.792L150.619 92.4477H154.337V94.2873H144.909V92.4477Z" fill="white" stroke="white" stroke-width="0.75"/>
<path d="M193.374 87.6079L193.332 93.6611C191.368 94.0326 188.442 94.7862 184.936 94.7862C176.421 94.7862 170.162 89.8615 170.162 79.6796C170.162 70.1168 176.502 64.5694 185.644 64.5694C188.527 64.5694 191.531 65.0647 193.788 65.8997L193.703 71.7442H191.534L191.619 67.3679C189.776 66.862 187.862 66.5683 185.478 66.5683C177.677 66.5683 172.501 71.6664 172.501 79.9272C172.501 87.9794 177.425 92.7838 185.237 92.7838C187.614 92.7838 189.698 92.4441 191.159 92.1151L191.195 87.6044H193.374V87.6079Z" fill="white" stroke="white" stroke-width="0.75"/>
<path d="M218.213 94.2873H212.609C212.609 92.9076 212.822 90.8662 213.073 89.4016H212.991C211.824 92.4901 209.903 94.7897 205.979 94.7897C202.226 94.7897 199.176 92.9111 199.176 88.8214C199.176 84.8519 202.427 82.8955 206.896 82.6018L212.701 82.2268C212.737 81.5546 212.783 80.9355 212.783 80.2633C212.783 76.7998 211.82 74.3339 207.189 74.3339C204.808 74.3339 203.057 74.8787 202.176 75.1688L202.091 78.7562H200.089L200.174 73.835C201.256 73.2513 203.761 72.3315 207.522 72.3315C213.274 72.3315 214.859 75.5827 214.859 79.1772C214.859 84.2292 214.736 88.365 214.697 92.4477H218.21V94.2873H218.213ZM206.315 92.7873C208.194 92.7873 209.942 91.9134 210.993 90.5337C212.493 88.6091 212.705 87.0666 212.705 84.063C205.063 84.2717 201.515 84.5193 201.515 88.7825C201.511 91.1599 203.266 92.7873 206.315 92.7873Z" fill="white" stroke="white" stroke-width="0.75"/>
<path d="M222.423 92.4477H225.848L226.014 74.6735H221.97V72.8303H228.268C228.268 74.8398 228.105 77.426 227.932 79.722H228.027C228.979 76.0497 231.328 72.3315 235.198 72.3315C236.532 72.3315 237.364 72.5826 238.202 72.7914L237.866 74.8787C237.081 74.5497 236.331 74.3339 235.237 74.3339C231.484 74.3339 228.19 79.0109 228.109 85.0642L228.031 92.4477H232.025V94.2873H222.423V92.4477Z" fill="white" stroke="white" stroke-width="0.75"/>
<path d="M257.034 93.1694C255.7 93.9548 252.898 94.7897 250.188 94.7897C243.215 94.7897 239.66 90.325 239.66 83.182C239.66 77.2632 243.003 72.3315 249.106 72.3315C256.15 72.3315 258.071 78.1335 258.071 83.3554H242.005C242.087 89.4476 244.882 92.7873 250.517 92.7873C253.065 92.7873 255.318 91.9524 257.112 90.9936L257.034 93.1694ZM255.743 81.5157C255.743 77.6771 253.652 74.3339 248.975 74.3339C243.672 74.3339 242.009 78.972 242.009 81.5157H255.743Z" fill="white" stroke="white" stroke-width="0.75"/>
<g opacity="0.86">
<path opacity="0.61" d="M239.476 12.2022C239.493 12.2022 239.511 12.2057 239.529 12.2022C240.976 11.9758 241.871 13.4015 243.18 13.2176C244.63 13.727 246.268 13.3838 247.765 13.8438C248.925 14.2011 249.948 14.3497 251.094 14.0737C252.513 14.8308 254.71 14.8061 256.118 13.9782C256.135 14.2294 256.142 14.477 256.128 14.7318C256.065 14.753 256.001 14.7778 255.937 14.8061C254.14 14.7565 252.728 15.7931 251.048 16.1929C249.951 16.4547 248.787 16.0195 247.676 15.9912C246.764 15.97 245.851 16.1328 244.942 16.2141C243.764 16.3238 242.596 16.345 241.496 15.8285C241.45 15.8073 241.404 15.7825 241.358 15.7577C241.344 15.733 241.326 15.7117 241.301 15.6905C240.771 15.2448 240.19 14.9936 239.805 14.3709C239.373 13.6775 239.334 12.9558 239.476 12.2022Z" fill="white"/>
<path opacity="0.61" d="M258.799 8.43792C259.528 8.33179 260.303 8.37778 260.83 8.8943C261.463 9.50989 261.633 10.5253 261.867 11.3743C261.644 11.5088 261.425 11.7034 261.219 11.9722C260.986 12.2729 260.926 12.5489 260.812 12.9027C260.752 13.0902 260.851 13.3131 260.795 13.497C260.416 14.7282 259.599 15.4393 258.269 15.2164C257.809 15.1386 257.427 14.7282 256.9 14.6787C256.847 14.6751 256.801 14.6716 256.755 14.6681C256.737 14.3249 256.687 13.9782 256.585 13.6492C257.844 12.5701 258.071 10.5571 257.657 9.02167C258.014 8.76694 258.393 8.56882 258.799 8.43792Z" fill="white"/>
<path opacity="0.61" d="M240.141 27.7334C240.272 27.7935 240.424 27.843 240.594 27.8749C240.643 27.8855 240.689 27.882 240.732 27.8678C242.239 28.8053 244.153 28.9539 245.89 29.0141C246.912 29.0494 248.066 29.1025 249.074 28.8549C250.011 28.6249 250.701 27.9598 251.614 27.698C253.157 27.2558 255.442 27.5282 256.737 26.4173C256.79 26.909 256.627 27.4574 256.645 27.9563C255.686 27.8926 254.844 28.2181 253.899 28.5117C252.431 28.9716 250.956 29.4138 249.481 29.8596C246.562 30.7405 243.834 31.2464 240.788 31.4552C240.449 30.3868 239.812 28.8832 240.141 27.7334Z" fill="white"/>
<path opacity="0.61" d="M260.441 22.2568C260.434 22.3948 260.462 22.5398 260.519 22.6778C260.685 23.0705 260.929 22.9927 260.706 23.5976C260.646 23.7639 260.491 23.9196 260.42 24.0894C260.246 24.4962 260.204 24.9349 260.289 25.3666C260.331 25.5859 260.395 25.8194 260.529 25.9963C260.437 26.0953 260.349 26.205 260.232 26.297C260.006 26.4774 259.673 26.5411 259.475 26.764C259.072 27.2204 259.252 27.9315 259.164 28.4692C259.15 28.5542 259.157 28.5895 259.171 28.6072C259.167 28.6072 259.167 28.6072 259.167 28.6108C259.146 28.6214 258.93 28.5966 258.898 28.6001C258.64 28.6284 258.47 28.8124 258.233 28.8655C257.582 29.0141 257.575 28.4799 257.275 28.1827C257.349 27.8218 257.299 27.3937 257.314 27.0541C257.328 26.6579 257.377 26.297 257.154 25.968C257.582 25.3489 257.643 24.5741 257.062 24.0009C257.076 23.6931 257.048 23.3747 257.059 23.074C257.08 22.5929 257.147 22.1082 257.147 21.627C258.269 21.4678 259.358 22.0233 260.441 22.2568Z" fill="white"/>
<path opacity="0.61" d="M243.516 44.34C243.573 44.3046 243.619 44.2551 243.64 44.195C244.613 44.1879 245.54 43.7421 246.509 43.5971C247.454 43.452 248.349 43.735 249.279 43.636C249.937 43.5688 250.567 43.3211 251.175 43.077C252.789 42.4331 254.363 41.6689 255.948 40.9614C256.839 40.5616 257.933 40.2573 258.647 39.5675C258.683 39.6028 258.718 39.6382 258.746 39.6842C258.842 39.8469 258.895 40.0309 258.969 40.2043C259.019 40.321 259.09 40.4661 259.185 40.5934C258.651 41.0144 257.802 41.1559 257.289 41.6442C255.736 43.123 253.546 43.1336 251.784 44.2303C251.016 44.7079 250.712 45.274 249.711 45.3624C248.437 45.4721 247.351 46.2681 246.102 46.5406C245.536 46.3495 244.977 46.2575 244.468 45.9037C243.912 45.5181 243.548 44.9804 243.516 44.34Z" fill="white"/>
<path opacity="0.61" d="M260.462 36.7442C260.473 36.769 260.487 36.7938 260.508 36.8079C260.763 36.9954 260.926 37.0556 260.94 37.4093C260.947 37.5792 260.989 37.7313 261.074 37.8834C261.244 38.1771 261.594 38.3823 261.676 38.7219C261.693 38.7926 261.746 38.8599 261.81 38.9023C261.821 39.1995 262.005 39.5497 262.097 39.8151C262.16 40.0026 262.221 40.183 262.295 40.3564C262.033 40.367 261.792 40.4236 261.531 40.4767C261.028 40.5757 260.89 40.3847 260.459 40.2113C260.19 40.1016 259.889 40.1087 259.702 40.2927C259.645 40.2538 259.592 40.2149 259.549 40.1618C259.433 40.0097 259.358 39.8257 259.266 39.663C259.196 39.5391 259.079 39.3587 258.937 39.2384C258.99 39.1641 259.047 39.0969 259.093 39.0155C259.16 38.8917 259.178 38.7113 259.093 38.591C258.778 38.1488 258.623 37.6818 258.485 37.1723C259.143 37.0166 259.811 36.8964 260.462 36.7442Z" fill="white"/>
<path opacity="0.61" d="M281.343 84.7882C281.406 84.8272 281.463 84.8696 281.516 84.9121C281.007 84.8731 280.394 85.0253 280.012 84.9934C279.945 84.9864 279.931 85.0819 279.981 85.1137C280.285 85.3189 280.628 85.3083 280.985 85.2941C281.367 85.28 281.622 85.3295 281.919 85.5029C281.951 85.6621 281.933 85.8248 281.88 85.9911C281.527 85.9628 281.173 85.9628 280.819 85.9027C280.444 85.8425 280.108 85.6727 279.74 85.6055C279.676 85.5949 279.609 85.6585 279.648 85.7258C280.012 86.306 280.897 86.4899 281.608 86.5253C281.286 87.0171 280.815 87.4947 280.632 87.8945C280.384 87.852 280.154 87.8308 279.903 87.7034C279.56 87.5301 278.962 87.4027 278.962 86.9392C278.962 86.8402 278.834 86.8119 278.781 86.8897C278.473 87.3426 279.025 87.7246 279.361 87.9369C279.659 88.1244 280.055 88.3756 280.44 88.4216C280.345 88.7294 280.271 89.0372 280.189 89.3414C279.673 89.2176 279.156 88.97 278.626 88.9983C278.272 89.016 277.83 89.1716 277.911 89.582C277.922 89.6386 278.003 89.6563 278.042 89.6174C278.569 89.0478 279.372 89.674 280.037 89.8261C279.984 89.9712 279.924 90.1162 279.853 90.2577C279.719 90.2259 279.57 90.2259 279.446 90.1976C279.174 90.1375 278.905 90.0313 278.618 90.0455C278.583 90.0455 278.551 90.0879 278.572 90.1233C278.742 90.3674 279.015 90.4806 279.291 90.562C279.383 90.5903 279.499 90.6292 279.616 90.654C279.613 90.6611 279.609 90.6681 279.602 90.6752C279.255 91.167 279.001 91.634 278.753 92.1151C278.357 92.0337 278.021 91.8215 277.646 91.6941C277.578 91.6693 277.539 91.7507 277.561 91.8038C277.66 92.0267 277.787 92.147 277.999 92.2708C278.176 92.3734 278.367 92.4406 278.562 92.4866C278.47 92.6706 278.374 92.8581 278.272 93.0491C278.258 93.0739 278.215 93.134 278.151 93.2189C278.035 93.1906 277.918 93.1659 277.805 93.1269C277.603 93.0597 277.419 92.9819 277.21 92.9288C277.161 92.9182 277.111 92.9713 277.14 93.0173C277.306 93.2649 277.593 93.4418 277.897 93.5338C277.872 93.5656 277.847 93.5939 277.819 93.6293C277.592 93.4524 277.313 93.3145 277.058 93.4171C277.023 93.4312 277.012 93.4701 277.037 93.4984C277.143 93.6187 277.281 93.6859 277.419 93.7673C277.483 93.8062 277.539 93.8487 277.593 93.8947C276.899 94.7084 275.884 95.798 275.583 95.7803C275.201 95.3098 275.332 94.4678 275.519 93.969C275.866 93.0527 276.192 93.5161 276.485 92.9536C276.549 92.8298 276.616 92.6953 276.673 92.575C276.623 92.2354 276.655 91.8958 276.772 91.5561C276.892 91.3863 277.012 91.2165 277.133 91.0467C277.281 90.6151 277.43 90.4311 277.532 89.9606C277.564 89.7695 277.546 89.5785 277.486 89.3874C277.384 88.6799 277.561 87.9935 278.021 87.3213C278.197 86.9782 278.459 86.8296 278.611 86.4581C278.841 85.892 278.682 84.9262 279.17 84.484C279.248 84.4769 279.323 84.4451 279.383 84.3991C279.514 84.484 279.644 84.5264 279.807 84.53C280.157 84.5406 280.38 84.5654 280.723 84.6821C280.922 84.7493 281.113 84.767 281.293 84.7352C281.314 84.7599 281.325 84.7741 281.343 84.7882Z" fill="white"/>
<path opacity="0.61" d="M267.637 28.5364C267.718 28.7416 267.853 28.961 268.033 29.0919C267.771 29.3112 267.63 29.5836 267.481 29.9516C267.283 30.4292 267.273 30.9068 266.887 31.3101C266.745 31.4587 266.597 31.5012 266.477 31.6781C266.165 32.1344 266.112 32.8314 265.978 33.355C265.84 33.8998 265.857 34.2819 266.162 34.7666C266.346 35.0638 266.816 34.7914 266.629 34.4942C266.25 33.8892 266.615 33.2489 266.806 32.658C266.997 32.0672 267.135 31.8974 267.563 31.4764C267.718 31.3243 267.832 31.1969 267.902 30.9811C267.938 30.8714 267.906 30.7405 267.934 30.6309C268.062 30.1249 268.108 29.6261 268.458 29.2016C268.468 29.198 268.483 29.2016 268.493 29.198C268.539 29.1874 268.571 29.1556 268.596 29.1131C268.783 29.152 268.974 29.1803 269.162 29.2334C269.137 29.8207 269.802 29.7924 270.305 29.8242C270.772 29.8525 271.15 30.1391 271.398 30.5035C271.461 30.599 271.497 30.7158 271.578 30.8042C271.681 30.9139 271.882 30.9563 271.971 31.066C272.148 31.2818 272.102 31.5224 272.173 31.7665C272.204 31.8726 272.293 31.9752 272.406 32C272.448 32.0071 272.487 32.0177 272.53 32.0248C272.611 32.0425 272.703 32.0142 272.774 31.9646C273.701 32.2901 274.794 32.605 275.385 33.4258C275.891 34.1298 275.852 35.4848 275.841 36.3197C275.816 38.2797 274.338 38.7538 272.661 38.6229C272.257 38.591 269.413 38.407 269.24 37.9011C269.091 37.466 268.398 37.6535 268.546 38.0922C268.56 38.1346 268.582 38.17 268.603 38.2089C268.437 38.453 268.415 38.8033 268.345 39.0898C268.313 39.2137 268.277 39.3375 268.242 39.4649C268.04 38.9802 267.761 38.5804 267.46 38.1488C267.124 37.6676 266.958 37.3669 266.837 36.7973C266.781 36.5249 266.82 36.3763 266.728 36.0898C266.71 36.0367 266.625 36.0155 266.597 36.0721C266.264 36.7726 266.328 37.4978 266.753 38.1205C267.347 38.9872 267.828 39.7337 267.909 40.8199C267.934 41.1524 267.899 41.4779 267.899 41.7998C267.602 41.5876 267.308 41.3718 267.014 41.1489C266.65 40.8729 266.07 40.222 265.581 40.0521C264.938 39.8293 263.763 40.3316 263.123 40.4059C262.925 40.4307 262.925 40.6925 263.123 40.7173C264.198 40.8411 264.831 40.5474 265.861 41.1206C266.459 41.4531 266.915 42.2456 267.485 42.564C267.973 42.8364 268.309 42.9284 268.804 43.2574C269.402 43.6572 269.876 43.8589 270.616 43.774C270.69 43.7633 270.747 43.728 270.789 43.682C271.115 43.728 271.444 43.7315 271.826 43.7563C273.266 43.8483 274.122 44.4957 274.72 45.7552C275.314 47.0111 275.12 47.9522 275.091 49.2187C275.088 49.4027 275.095 49.5654 275.116 49.7175C274.9 49.5937 274.663 49.4876 274.355 49.4062C274.288 49.3885 274.232 49.477 274.285 49.5265C274.741 49.944 275.176 50.3048 275.576 50.7718C275.788 51.0195 275.986 51.4122 276.259 51.6032C277.232 52.286 278.343 52.0808 279.312 53.0077C281.615 55.2083 279.687 57.7202 280.317 60.2851C280.345 60.4018 280.451 60.5186 280.571 60.5398C283.762 61.1448 281.498 64.7322 282.715 66.7028C282.775 66.8018 282.857 66.862 282.942 66.8867C283.352 67.9268 283.95 68.8856 284.442 69.8904C285.075 71.1817 285.337 71.9706 284.314 73.2053C284.081 73.4883 283.78 73.6228 283.561 73.9483C283.444 74.1216 283.359 74.3056 283.292 74.4966C283.257 74.4223 283.218 74.348 283.172 74.2808C283.09 74.1641 282.853 74.1888 282.871 74.3622C282.906 74.7018 283.034 75.0308 283.094 75.3669C283.041 75.9047 283.076 76.4601 283.108 76.9908C283.165 77.8859 283.398 78.9968 282.871 79.814C282.347 80.6242 281.343 80.6454 280.603 81.0912C280.225 81.3176 280.564 81.9014 280.95 81.682C281.212 81.5299 281.466 81.4131 281.711 81.3105C281.58 81.7138 281.636 82.1879 281.703 82.6125C281.749 82.8955 281.792 83.2139 281.774 83.4792C281.764 83.4615 281.749 83.4438 281.732 83.4332C281.392 83.2174 280.989 83.6632 280.663 83.2953C280.352 82.945 280.543 82.4639 280.508 82.0535C280.501 81.958 280.373 81.912 280.32 82.004C280.051 82.478 280.048 83.1785 280.423 83.5995C280.706 83.9179 281.516 84.0807 281.757 83.6455C281.682 84.0276 281.424 84.2505 280.738 84.0064C280.617 83.9639 280.547 83.9073 280.423 83.8861C280.256 83.8542 279.874 83.9958 279.751 83.9002C279.609 83.7906 279.464 83.7976 279.361 83.8684C278.197 82.8566 278.764 80.9709 278.562 79.5522C278.537 79.3753 278.509 79.209 278.477 79.0498C278.855 79.0392 279.213 78.9685 279.524 78.7137C279.69 78.5793 279.51 78.2998 279.319 78.3635C279.004 78.4661 278.71 78.6324 278.403 78.7456C278.388 78.6925 278.371 78.6395 278.357 78.5899C278.495 78.5828 278.629 78.5581 278.76 78.5227C279.057 78.4449 279.468 78.314 279.51 77.9673C279.517 77.9177 279.468 77.8505 279.414 77.8434C279.131 77.8045 278.912 78.0309 278.647 78.1123C278.498 78.1583 278.35 78.1795 278.201 78.1937C278.081 77.9531 277.922 77.7232 277.699 77.4967C276.673 76.4531 276.078 75.466 275.714 74.0119C275.265 72.2147 274.943 70.1026 273.248 69.0165C272.834 68.7512 272.466 68.7264 272.042 68.5424C271.879 68.4717 271.78 68.4328 271.727 68.4115C271.748 68.408 271.727 68.3691 271.511 68.2134C272.413 68.3832 273.276 68.3231 273.598 67.5165C274.352 66.9009 275.247 66.869 275.583 65.7475C275.969 64.4598 275.215 63.2003 274.61 62.1212C273.874 60.8087 273.29 59.6271 271.96 58.8523C270.435 57.9643 268.666 57.2461 266.944 56.8746C266.724 55.325 264.513 54.3061 263.657 53.0927C262.758 51.819 262.801 49.7282 261.425 48.8437C261.361 48.8012 261.269 48.8862 261.315 48.9534C262.256 50.3013 262.32 51.9747 263.225 53.3474C264.198 54.8191 265.829 55.6541 266.639 57.2284C266.71 57.3664 266.905 57.3239 266.954 57.1966C268.277 57.7308 269.608 58.219 270.878 58.8841C272.339 59.6483 273.167 60.745 273.948 62.1531C274.829 63.7416 275.785 65.4221 273.97 66.6745C273.715 66.8513 273.538 66.9221 273.397 67.0282C273.301 67.007 273.191 67.0282 273.11 67.1061C272.25 67.9198 270.552 67.0671 269.6 66.8089C268.249 66.441 267.336 66.0836 266.53 64.8878C265.797 63.8053 265.175 63.3878 263.834 63.271C261.771 63.0941 258.944 63.7133 257.13 62.5564C256.415 62.1 255.863 61.442 255.106 61.0457C254.112 60.5257 252.799 60.5858 252.123 59.574C252.24 57.094 252.477 54.7484 253.613 52.6752C253.666 52.6257 253.701 52.5655 253.719 52.4983C254.091 51.8579 254.543 51.2424 255.117 50.6586C255.934 49.8272 257.151 48.734 258.286 48.3095C259.121 47.9981 260.331 48.3484 261.149 48.8119C261.389 48.9463 261.665 48.6137 261.449 48.4227C260.929 47.9557 259.649 47.5064 258.973 47.4993C258.042 47.4922 256.924 48.3484 256.065 49.0949C256.097 49.056 256.125 49.0206 256.157 48.9817C256.691 48.3272 256.85 47.5099 257.388 46.8448C258.322 45.6915 259.351 44.8919 259.9 43.4591C259.939 43.353 259.786 43.307 259.73 43.3883C259.189 44.156 258.683 44.945 258.032 45.6313C257.575 46.1125 257.023 46.5123 256.684 47.0889C256.227 47.8673 255.895 48.6173 255.304 49.3248C254.957 49.7388 254.667 50.1916 254.409 50.6657C254.016 51.0973 253.652 51.5678 253.319 52.0631C251.611 51.4617 251.214 50.181 249.937 49.0595C249.608 48.7729 249.254 48.5784 248.833 48.4475C248.656 48.3944 248.458 48.3767 248.278 48.3449C248.044 48.3024 245.221 48.1467 245.879 47.1101C245.964 47.1172 246.049 47.1243 246.13 47.1243C246.244 47.1208 246.318 47.0642 246.357 46.9899C246.845 46.9757 247.291 46.8413 247.783 46.6538C248.791 46.2717 249.583 46.1408 250.648 46.0276C251.006 45.9887 251.243 45.9427 251.554 45.7056C251.702 45.5924 251.71 45.3306 251.837 45.2174C252.286 44.8176 252.651 44.616 253.238 44.3577C254.621 43.7492 256.556 43.5299 257.699 42.5074C258.088 42.1572 257.052 42.4791 258.347 41.6053C258.562 41.4602 258.909 41.4779 259.146 41.3682C259.475 41.2161 259.652 41.11 259.843 40.834C259.878 40.8092 259.903 40.7774 259.921 40.7385C260.328 40.7102 260.491 41.0746 260.904 41.1843C261.425 41.3222 261.941 41.0427 262.461 41.0781C262.663 41.0923 262.769 40.9543 262.79 40.8022C262.811 40.7774 262.825 40.742 262.825 40.6996C262.836 40.2644 262.673 39.8717 262.55 39.4613C262.479 39.2278 262.39 39.0722 262.479 38.8422C262.571 38.6087 262.79 38.4778 262.995 38.3504C263.735 37.9047 264.467 37.8976 265.281 38.0992C265.73 38.2089 265.868 37.5933 265.465 37.4271C264.531 37.0344 263.314 37.2855 262.532 37.9047C262.408 38.0002 262.259 38.1276 262.125 38.2691C261.913 37.9507 261.573 37.7172 261.509 37.328C261.46 37.0061 261.283 36.7443 261.018 36.6346C262.486 36.2454 263.798 35.6298 264.524 34.1439C264.892 33.3904 265.444 31.9222 264.609 31.2358C264.361 31.0306 264.127 31.0059 263.866 31.0165C263.841 30.9599 263.813 30.8997 263.791 30.8254C263.66 30.4009 263.699 30.1639 263.731 29.757C263.763 29.3891 263.671 29.053 263.66 28.685C263.636 27.7404 264.145 26.7746 265.224 26.9763C265.578 27.0435 265.716 26.5553 265.373 26.435C264.255 26.0387 263.321 27.0399 263.193 28.0907C263.155 28.4232 263.218 28.7204 263.232 29.0459C263.25 29.4457 263.094 29.8313 263.098 30.2205C263.101 30.5778 263.3 30.8042 263.508 31.0448C262.461 31.1191 261.559 31.441 260.462 31.3773C260.165 31.3596 260.098 31.8373 260.391 31.9009C260.968 32.0248 261.474 32.0778 262.072 32.0142C262.373 31.9823 262.953 31.7453 263.208 31.7807C265.589 32.1132 263.466 34.7454 262.942 35.0992C262.917 35.1168 262.886 35.1345 262.861 35.1487C261.938 35.2973 261.081 35.5343 260.108 35.4246C259.617 35.368 259.291 35.2442 258.803 35.4388C258.566 35.5343 258.393 35.7289 258.166 35.828C257.788 35.9412 257.406 36.0261 257.02 36.0756C256.903 36.0898 256.79 36.1181 256.68 36.1605C256.298 36.4506 256.284 36.2808 256.203 36.7584C256.188 36.8398 256.263 36.8964 256.337 36.861C256.893 36.5957 257.515 36.6381 258.081 36.4435C258.262 36.3834 258.41 36.249 258.584 36.1817C259.192 35.9412 259.79 36.0013 260.43 36.0013C260.65 36.0013 260.866 35.9942 261.081 35.9836C260.88 36.0615 260.682 36.1322 260.505 36.1959C258.644 36.8681 255.746 36.6593 254.805 38.7608C254.763 38.8564 254.879 38.9731 254.961 38.8811C255.729 38.0391 256.783 37.6181 257.922 37.3245C257.869 38.2337 258.368 38.7679 257.303 39.4613C255.824 40.4307 253.882 41.0144 252.276 41.7538C251.289 42.2067 250.312 42.7515 249.222 42.8895C248.518 42.9779 247.878 42.7798 247.181 42.8258C246.017 42.9036 244.676 43.3423 243.541 43.7563C242.929 41.9201 243.544 39.9177 242.801 38.0462C242.348 36.907 239.536 32.9658 240.548 31.7983H240.551C240.583 31.8514 240.636 31.8939 240.717 31.9009C243.212 32.1061 245.727 31.6215 248.119 30.9422C249.314 30.6026 250.507 30.2558 251.702 29.9091C253.149 29.4881 255.265 28.4445 256.751 28.731C256.832 28.7452 256.903 28.731 256.967 28.7063C257.059 28.9681 257.168 29.3572 257.232 29.4386C257.377 29.619 257.593 29.7287 257.827 29.7393C258.102 29.7499 258.34 29.6049 258.577 29.4881C258.955 29.3042 259.16 29.474 259.5 29.3643C260.257 29.1237 259.659 27.8855 259.924 27.3796C260.169 26.9161 260.862 26.7711 261.078 26.3218C261.488 26.4067 262.044 26.4102 262.313 26.4137C262.963 26.4208 263.604 26.2439 263.954 25.7557C264.626 25.8548 265.32 25.4373 265.967 25.6956C266.441 25.8831 266.604 26.4739 267.057 26.6189C267.145 26.6472 267.241 26.6154 267.312 26.5553C267.619 26.7392 267.495 27.5954 267.499 27.8112C267.51 28.0376 267.538 28.2959 267.637 28.5364Z" fill="white"/>
<path opacity="0.61" d="M268.734 5.69964C269.915 6.69731 271.21 6.68316 272.717 6.81406C274.405 6.96265 276 7.52516 276.206 9.49575C276.372 11.0666 275.824 12.6055 274.228 13.1539C272.848 13.628 271.433 13.4404 270.35 12.4428C269.929 12.0536 269.742 11.7317 269.254 11.5795C269.866 11.0135 270.58 10.451 271.394 10.8189C271.812 11.0064 272.169 10.4333 271.759 10.1927C270.938 9.71156 270.085 10.0017 269.381 10.5606C268.405 11.3354 267.333 12.3614 266.632 13.398C266.551 13.5183 266.707 13.6527 266.823 13.589C266.972 13.5041 267.113 13.4086 267.251 13.3095C267.304 13.4758 267.379 13.6456 267.414 13.7978C267.534 14.2966 267.216 14.5513 267.11 15.0042C267.021 15.3863 267.262 15.9311 266.965 16.2283C266.94 16.253 266.926 16.2813 266.915 16.3132C266.869 16.3769 266.837 16.4405 266.827 16.5148C265.964 17.2436 265.313 19.1718 265.765 20.1376C265.826 20.2685 265.995 20.2296 266.066 20.1376C266.445 19.6352 266.222 18.8427 266.427 18.2519C266.579 17.8168 266.898 17.4241 267.071 16.996C267.128 17.0243 267.191 17.042 267.287 17.095C267.319 17.1127 267.361 17.0844 267.393 17.095C267.793 17.2366 268.277 17.3887 268.638 17.7531C269.194 18.3191 269.505 18.5703 270.358 18.6906C271.125 18.8003 271.843 18.8144 272.558 18.4925C272.59 18.4783 272.615 18.4571 272.636 18.4359C274.373 18.6552 275.848 20.5692 275.565 22.3947C275.466 23.0351 274.762 23.4207 274.44 23.9266C274.147 24.3866 274.009 25.6283 273.598 25.9326C272.937 26.021 272.364 26.067 271.677 25.8724C271.27 25.7592 270.902 25.593 270.488 25.508C270.149 25.4691 269.809 25.4267 269.473 25.3807C269.179 25.2144 268.953 24.988 268.797 24.7014C268.659 24.5988 268.564 24.4821 268.383 24.4078C267.198 23.9089 266.848 24.6484 266.859 25.4691C266.339 25.0269 265.617 24.9561 264.895 25.0694C264.959 24.8571 264.789 24.5705 264.499 24.6271C264.258 24.6731 264.018 24.7191 263.777 24.7686C263.671 24.7899 263.561 24.8995 263.54 25.0057C263.37 25.8831 262.228 25.738 261.559 25.692C261.248 25.6708 260.982 25.6849 260.827 25.363C260.643 24.9844 260.827 24.3972 260.996 24.0575C261.124 23.7957 261.325 23.5941 261.315 23.2827C261.308 23.0634 260.982 22.6141 260.926 22.3134C262.861 22.3346 264.297 20.5409 264.541 18.6765C264.633 17.9689 264.379 17.1693 263.675 16.8757C262.734 16.483 261.849 17.3922 260.922 17.0915C260.54 16.9677 260.381 17.562 260.756 17.6894C261.17 17.8274 261.524 17.7991 261.941 17.7C262.217 17.6328 262.486 17.4984 262.765 17.4594C263.618 17.3498 264.05 18.0149 263.876 18.8357C263.551 20.3711 262.341 21.7898 260.699 21.6589C259.196 21.3617 257.865 20.647 256.337 21.2556C255.159 21.7261 254.377 22.6176 254.122 23.8417C254.094 23.9797 254.299 24.0894 254.363 23.9443C254.805 22.9608 255.612 22.094 256.652 21.7579C256.549 22.1895 256.514 22.6495 256.496 23.0846C256.472 23.5799 256.411 24.0929 256.609 24.5528C256.631 24.5988 256.663 24.6271 256.698 24.6413C256.776 26.7498 251.487 26.8666 250.185 27.5282C247.645 28.8195 243.544 28.5117 240.88 27.3937C240.848 27.3619 240.809 27.3371 240.753 27.323C239.168 26.9303 239.95 25.1366 240.088 24.1C240.219 23.1094 240.074 22.094 240.049 21.1034C240.035 20.3994 240.081 19.6918 239.932 18.9984C239.734 18.0892 239.299 17.3392 239.157 16.4476C239.405 16.7165 239.61 16.7625 239.985 16.8828C240.863 17.1623 241.209 17.2719 241.938 17.6151C243.452 18.3262 244.942 17.6151 246.516 17.9795C246.803 18.0467 246.997 17.6399 246.721 17.4877C245.497 16.812 244.574 17.4205 243.268 17.3498C242.43 17.3038 241.867 16.8049 241.121 16.5573C240.484 16.345 239.872 16.575 239.281 16.1257C239.246 16.0974 239.207 16.0903 239.175 16.0974C239.801 15.6162 242.575 16.9111 243.343 16.9712C244.882 17.088 246.41 16.6917 247.949 16.7979C249.375 16.8969 250.485 17.2436 251.865 16.7306C253.111 16.2672 254.487 15.9842 255.725 15.503C255.736 15.503 255.746 15.503 255.757 15.503C257.034 15.2377 257.993 16.2637 259.206 16.0797C259.832 15.9842 260.699 15.5349 261.092 15.0466C261.888 14.056 261 11.997 263.048 11.8095C264.23 11.7034 264.722 13.0725 265.808 13.1114C265.932 13.115 266.01 12.9416 265.914 12.8567C264.994 12.0678 263.721 10.9781 262.532 11.1444C262.394 10.1998 261.973 9.0712 261.248 8.445C261.276 8.45208 261.304 8.45562 261.336 8.46623C262.334 8.73865 263.285 8.91554 264.23 8.3884C265.956 7.43318 266.721 5.59704 265.712 3.82811C265.698 3.80335 265.681 3.7892 265.663 3.77151C265.659 3.76797 265.659 3.76797 265.659 3.76443C265.242 3.25852 264.637 2.89412 263.961 2.91181C263.133 2.93304 262.394 3.77151 261.573 3.55924C261.17 3.45664 260.996 4.0793 261.4 4.1819C261.934 4.31987 262.376 4.17836 262.864 3.9484C263.728 3.54862 264.471 3.38234 265.157 4.16067C266.526 6.57348 263.936 8.41317 261.768 7.95678C260.88 7.76928 260.101 7.46856 259.185 7.66314C257.597 7.99924 256.107 9.25163 255.739 10.8543C255.725 10.9215 255.806 10.9498 255.845 10.9003C256.284 10.3271 256.723 9.81769 257.197 9.40022C257.094 11.1762 257.257 12.9699 255.148 13.7164C253.956 14.1374 252.838 13.7978 251.685 13.7589C251.734 13.5466 251.575 13.2883 251.296 13.3591C249.675 13.7553 248.533 13.2565 247.004 12.9947C245.886 12.8036 244.676 12.8956 243.53 12.9381C243.516 12.8779 243.473 12.8284 243.399 12.8142C242.352 12.648 241.531 11.8979 240.53 11.5725C240.321 11.5265 240.116 11.5194 239.911 11.5512C239.642 11.1019 239.589 10.6562 239.755 10.2139C239.805 9.71509 240.07 9.18442 240.226 8.71388C240.675 7.35181 241.156 5.98266 241.344 4.55337C241.457 3.6866 240.951 1.14289 241.453 0.318567C241.57 0.594519 241.758 0.636974 242.076 0.67589C243.017 0.792639 243.919 0.884623 244.836 1.16411C244.889 1.1818 244.938 1.17826 244.984 1.16765C245.748 1.51436 246.516 1.54266 247.372 1.61696C248.738 1.73724 249.845 2.22193 251.154 2.55095C253.415 3.11701 255.99 2.95073 258.283 2.58279C258.393 2.63232 258.52 2.62171 258.594 2.53326C258.803 2.67124 258.944 2.91889 259.192 3.07455C259.581 3.31513 260.094 3.42834 260.537 3.29744C260.904 3.1913 261.11 2.95073 261.251 2.60402C261.4 2.23608 261.417 1.85399 261.658 1.52497C261.934 1.14642 262.341 1.06505 262.709 0.820942C262.741 0.799715 262.758 0.771412 262.769 0.739571C262.96 0.629898 263.151 0.523762 263.342 0.410551C263.512 0.315029 263.678 0.212432 263.841 0.106296C263.965 -0.0458314 264.081 -0.0352178 264.195 0.141675C264.499 0.19828 265.012 0.382248 265.267 0.516686C265.705 0.750184 265.886 1.21364 266.317 1.45068C266.469 1.53205 266.685 1.52497 266.82 1.60281C267.361 1.91767 267.403 2.66416 267.46 3.2196C267.464 3.2656 267.485 3.30805 267.51 3.34343C267.174 4.0793 267.365 4.91069 267.12 5.70671C266.975 6.18432 266.689 6.6124 266.508 7.07232C266.254 7.71975 266.119 8.3884 265.833 9.03229C265.769 9.1738 265.914 9.39315 266.077 9.2764C266.218 9.1738 266.328 9.0429 266.423 8.89785C266.569 9.87076 267.021 10.8224 267.089 11.8838C267.113 12.273 267.701 12.2836 267.704 11.8838C267.711 11.0913 267.453 10.458 267.177 9.72924C266.947 9.1172 266.855 8.53345 266.844 7.92848C266.979 7.45795 267.074 6.96618 267.241 6.56287C267.393 6.1914 267.556 5.827 267.616 5.42722C267.644 5.23264 267.651 5.03806 267.651 4.85055C267.98 5.2008 268.514 5.51213 268.734 5.69964Z" fill="white"/>
<path opacity="0.61" d="M263.243 7.18558C263.254 7.18204 263.257 7.17497 263.264 7.17143C263.31 7.20681 263.37 7.22096 263.441 7.20327C264.025 7.06176 264.301 6.27282 264.35 5.7386C264.407 5.13363 264.244 4.44375 263.706 4.09704C263.554 3.99798 263.423 4.18548 263.48 4.32346C263.667 4.76215 263.851 5.17608 263.795 5.66784C263.738 6.15253 263.438 6.41787 263.239 6.81057C263.063 6.61952 262.886 6.46386 262.879 6.16314C262.868 5.76336 263.137 5.4025 263.314 5.06641C263.377 4.94258 263.222 4.81168 263.116 4.91428C262.719 5.30344 262.351 5.81643 262.422 6.40018C262.472 6.80703 262.772 7.30233 263.243 7.18558Z" fill="white"/>
<path opacity="0.61" d="M272.399 9.02875C272.693 9.23041 273.004 9.50636 273.354 9.59835C274.15 9.80708 274.525 9.00753 274.936 8.50161C275.084 8.31764 274.999 8.09476 274.854 7.99216C274.737 7.56055 274.058 7.31643 273.676 7.25629C273.096 7.16431 272.484 7.30936 272.123 7.79404C272.027 7.92141 272.187 8.11599 272.332 8.06292C272.746 7.91433 273.163 7.79758 273.602 7.91433C273.846 7.97801 274.051 8.18321 274.267 8.31411C274.2 8.41317 274.132 8.51223 274.058 8.61482C273.761 9.03229 273.453 8.98984 273.071 8.76341C272.611 8.491 272.158 8.18321 271.631 8.08061C271.546 8.06292 271.44 8.16198 271.504 8.24689C271.751 8.57591 272.063 8.79879 272.399 9.02875Z" fill="white"/>
<path opacity="0.61" d="M269.59 20.3569C270.082 20.5515 270.626 20.6506 271.129 20.831C271.553 20.9831 272.02 21.1211 272.473 21.0008C272.961 20.8735 273.627 20.3392 273.202 19.8262C273.156 19.7732 273.075 19.7661 273.011 19.7944C273.011 19.7413 272.983 19.7024 272.933 19.6387C272.877 19.568 272.777 19.5644 272.696 19.5751C272.18 19.6529 271.645 19.7343 271.147 19.8864C271.044 19.9182 270.998 20.0208 271.009 20.1093C270.987 20.1022 270.966 20.0951 270.945 20.0881C270.46 19.9218 269.947 19.7873 269.526 20.1305C269.445 20.2013 269.508 20.3215 269.59 20.3569ZM272.689 20.0704C272.622 20.1411 272.555 20.2119 272.463 20.2649C272.141 20.4525 271.773 20.3746 271.422 20.2543C271.843 20.2225 272.272 20.1482 272.689 20.0704Z" fill="white"/>
<path opacity="0.61" d="M268.879 25.8093C268.869 25.802 268.854 25.7948 268.843 25.784C268.872 25.8093 268.883 25.8129 268.879 25.8093Z" fill="white"/>
<path opacity="0.61" d="M265.047 20.0491C265.008 20.6294 265.323 21.16 265.698 21.581C265.893 21.8004 266.119 21.9914 266.367 22.1471C266.657 22.3275 266.986 22.423 267.248 22.6495C267.513 22.8794 267.899 22.5009 267.633 22.2638C267.241 21.9101 266.689 21.8251 266.271 21.4891C265.769 21.0857 265.546 20.5409 265.238 19.9961C265.189 19.9041 265.054 19.9536 265.047 20.0491Z" fill="white"/>
<path opacity="0.61" d="M268.666 23.7745C269.314 23.2368 270.874 24.0257 271.67 24.0717C272.204 24.1035 272.717 24.0434 273.163 23.7321C273.683 23.3677 273.757 22.7627 274.26 22.4054C274.568 22.186 274.808 22.2497 274.872 21.811C274.907 21.5669 274.642 21.3652 274.44 21.5598C274.132 21.8535 273.662 21.8322 273.4 22.1825C273.283 22.3381 273.344 22.4549 273.23 22.6424C272.544 23.771 271.635 23.495 270.694 23.3429C270.089 23.2474 268.73 22.8228 268.483 23.6648C268.451 23.7816 268.589 23.8417 268.666 23.7745Z" fill="white"/>
<path opacity="0.61" d="M249.017 2.71017C247.74 1.90708 246.212 2.1335 244.832 1.6948C243.753 1.35163 242.752 1.1712 241.605 1.05445C241.528 1.04738 241.514 1.15705 241.567 1.19243C242.027 1.49315 242.363 1.55683 242.904 1.70188C243.498 1.86108 244.022 2.20072 244.602 2.36346C245.278 2.5545 246.014 2.52266 246.707 2.63587C247.454 2.7597 248.158 3.01442 248.904 3.10994C249.134 3.14178 249.184 2.81276 249.017 2.71017Z" fill="white"/>
<path opacity="0.61" d="M258.251 2.94364C256.903 3.10992 255.605 3.40356 254.236 3.19837C252.845 2.98964 251.462 3.19129 250.026 2.93303C249.866 2.90473 249.735 3.13823 249.905 3.21606C250.489 3.4814 251.044 3.6689 251.688 3.7432C252.651 3.85287 253.641 3.98731 254.596 4.08283C255.764 4.19958 257.356 4.07222 258.385 3.44602C258.594 3.31512 258.531 2.90826 258.251 2.94364Z" fill="white"/>
<path opacity="0.61" d="M259.684 3.58752C258.368 3.72196 256.553 4.59935 255.934 5.83406C255.824 6.04986 256.079 6.23383 256.259 6.08524C256.808 5.63947 257.2 5.09111 257.812 4.70194C258.407 4.32339 259.061 4.08636 259.723 3.85994C259.861 3.81041 259.85 3.56983 259.684 3.58752Z" fill="white"/>
<path opacity="0.61" d="M256.755 15.8002C255.067 16.0655 253.871 16.1363 252.375 16.8899C251.954 17.1021 251.441 17.4135 250.96 17.4276C250.482 17.4382 250.139 17.1977 249.697 17.1411C249.12 17.0703 248.876 17.0455 248.426 17.371C248.317 17.4524 248.356 17.6151 248.494 17.6222C249.785 17.7213 250.889 18.3121 252.134 17.7743C253.149 17.3356 253.67 16.8969 254.869 16.7731C255.711 16.6847 256.21 16.713 256.928 16.2212C257.154 16.0655 257.009 15.7578 256.755 15.8002Z" fill="white"/>
<path opacity="0.61" d="M243.912 31.809C243.374 31.8019 242.844 32.0354 242.317 32.138C241.729 32.2512 241.121 32.2653 240.544 32.4104C240.456 32.4316 240.449 32.5767 240.544 32.5979C241.142 32.7253 241.775 32.651 242.377 32.5802C242.922 32.513 243.544 32.4847 244.015 32.1875C244.181 32.0814 244.117 31.8125 243.912 31.809Z" fill="white"/>
<path opacity="0.61" d="M255.859 28.9539C254.925 29.145 253.907 29.3396 253.019 29.704C251.89 30.1674 251.671 30.875 250.302 30.9422C249.665 30.974 249.456 30.9776 248.858 31.158C247.86 31.4587 246.838 31.4269 245.893 31.8373C245.773 31.8903 245.837 32.0849 245.957 32.0778C246.912 32.0248 247.814 32.1345 248.738 31.8727C249.159 31.7524 249.226 31.5047 249.771 31.4587C249.937 31.4446 250.804 31.6887 251.098 31.6285C251.748 31.4941 251.738 31.2924 252.247 30.8785C253.309 30.0224 254.745 29.8879 256.001 29.4917C256.348 29.3785 256.21 28.8796 255.859 28.9539Z" fill="white"/>
<path opacity="0.61" d="M261.23 34.4517C261.517 34.6145 261.923 34.5897 262.086 34.2713C262.217 34.0166 261.941 33.6911 261.676 33.8609C261.58 33.9211 261.513 33.9423 261.439 33.8291C261.333 33.6699 261.509 33.3479 261.587 33.21C261.757 32.8916 261.966 32.6262 262.334 32.5448C262.422 32.5236 262.45 32.3786 262.362 32.3397C261.672 32.0389 260.986 32.9871 260.869 33.5708C260.788 33.9211 260.908 34.2678 261.23 34.4517Z" fill="white"/>
<path opacity="0.61" d="M262.228 34.0166C262.228 34.0697 262.259 34.1263 262.305 34.1546C262.702 34.3668 263.048 33.8751 263.169 33.5602C263.31 33.1958 263.346 32.6474 263.006 32.375C262.861 32.2583 262.631 32.3255 262.624 32.5342C262.617 32.8173 262.698 33.0826 262.578 33.355C262.482 33.585 262.235 33.7477 262.228 34.0166Z" fill="white"/>
<path opacity="0.61" d="M260.724 20.4277C260.788 20.4984 260.862 20.5232 260.936 20.5161C260.961 20.6612 261.074 20.8027 261.237 20.8133C262.033 20.877 262.818 20.226 263.063 19.4972C263.179 19.147 263.208 18.68 262.985 18.3687C262.787 18.0927 262.458 18.0113 262.167 18.1953C262.029 18.2837 262.072 18.542 262.256 18.5279C262.854 18.4748 262.344 19.5538 262.189 19.7307C261.92 20.035 261.594 20.1376 261.216 20.1977C261.216 20.18 261.219 20.1623 261.216 20.1447C261.166 19.8829 261.081 19.7024 261.191 19.4335C261.283 19.2107 261.474 19.055 261.58 18.8427C261.619 18.7684 261.587 18.68 261.502 18.6517C261.103 18.5279 260.777 18.9064 260.636 19.2354C260.476 19.6034 260.445 20.1093 260.724 20.4277Z" fill="white"/>
<path opacity="0.61" d="M269.629 36.2419C270.237 35.0107 271.808 33.1321 273.322 33.8998C273.69 34.0873 273.892 34.1475 274.288 34.2465C275.151 34.4624 275.077 35.2088 275.257 35.9942C275.307 36.2065 275.622 36.1499 275.629 35.9447C275.654 35.2973 275.576 34.243 275.066 33.776C275.006 33.7229 273.899 33.4399 274.033 33.4859C273.588 33.3302 273.46 33.1817 273.064 33.171C271.394 33.1321 269.781 34.5968 269.466 36.1711C269.441 36.2667 269.579 36.341 269.629 36.2419Z" fill="white"/>
<path opacity="0.61" d="M274.536 35.8881C273.948 35.9518 273.372 36.0013 272.785 35.9164C272.7 35.9058 272.452 35.8987 272.374 35.8421C272.197 35.7041 272.346 35.6652 272.456 35.5343C272.565 35.4034 272.693 35.3326 272.774 35.1734C272.926 34.8798 272.498 34.6251 272.328 34.9116C272.158 35.1982 271.805 35.2902 271.716 35.6404C271.652 35.8952 271.744 36.1251 271.981 36.249C272.289 36.4046 272.77 36.4117 273.106 36.4258C273.609 36.4471 274.104 36.4011 274.585 36.2631C274.783 36.2065 274.755 35.8633 274.536 35.8881Z" fill="white"/>
<path opacity="0.61" d="M253.652 44.5275C252.315 45.2103 251.02 46.2009 249.551 46.5795C248.444 46.8625 247.241 46.813 246.283 47.4993C246.18 47.5736 246.24 47.7328 246.371 47.7045C247.659 47.4215 249.099 47.3543 250.34 46.8979C251.586 46.438 252.785 45.6632 253.917 44.9804C254.207 44.8035 253.953 44.3754 253.652 44.5275Z" fill="white"/>
<path opacity="0.61" d="M260.162 41.2267C259.171 41.1878 258.375 42.3942 257.752 43.0133C257.094 43.6714 256.348 43.6006 255.545 43.866C255.191 43.9827 255.014 44.1278 254.844 44.4639C254.777 44.5948 254.936 44.7186 255.046 44.6195C255.502 44.2127 256.143 44.3471 256.684 44.2693C257.098 44.2127 257.381 44.0499 257.71 43.7881C258.477 43.1761 259.224 41.86 260.222 41.6796C260.494 41.6336 260.416 41.2338 260.162 41.2267Z" fill="white"/>
<path opacity="0.61" d="M260.972 41.7043C260.59 41.7362 260.179 41.768 259.832 41.9449C259.68 42.0227 259.726 42.2562 259.878 42.3022C260.229 42.4013 260.614 42.3624 260.972 42.3199C261.357 42.2739 261.371 41.6725 260.972 41.7043Z" fill="white"/>
<path opacity="0.61" d="M259.157 43.0876C258.81 43.0487 258.47 43.5794 258.269 43.8164C258.17 43.9296 258.078 44.0499 258.028 44.195C257.95 44.4143 258.01 44.7469 257.77 44.8742C257.529 45.0016 257.71 45.3129 257.943 45.2811C258.488 45.2033 258.336 44.6407 258.513 44.2799C258.683 43.9296 259.341 43.5759 259.238 43.1442C259.22 43.1089 259.189 43.0947 259.157 43.0876Z" fill="white"/>
<path opacity="0.61" d="M259.921 48.9321C257.236 48.7835 254.285 51.1008 253.525 53.6764C253.075 55.1941 252.789 57.3062 252.863 58.877C252.905 59.8004 253.302 60.4514 254.257 60.4337C254.359 60.4337 254.381 60.2815 254.282 60.2568C253.563 60.0622 253.408 57.9253 253.496 57.3133C253.556 56.9135 253.613 56.5102 253.673 56.1104C253.846 54.9182 253.892 53.8073 254.593 52.7813C255.863 50.9275 257.572 49.3991 259.921 49.392C260.218 49.3885 260.215 48.9463 259.921 48.9321Z" fill="white"/>
<path opacity="0.61" d="M272.02 47.3153C272.325 47.701 272.629 48.0831 272.93 48.4687C273.092 48.6774 273.425 48.4934 273.425 48.2635C273.428 47.5807 273.397 46.7882 272.88 46.2787C272.544 45.9462 272.038 45.7658 271.61 45.9922C271.44 45.9143 271.214 46.0877 271.281 46.2787C271.43 46.6679 271.762 46.9899 272.02 47.3153ZM272.785 47.3472C272.685 47.2198 272.586 47.0925 272.484 46.9651C272.286 46.7104 272.095 46.4096 271.858 46.1797C272.441 46.2611 272.685 46.7776 272.785 47.3472Z" fill="white"/>
<path opacity="0.61" d="M275.972 52.9511C275.933 53.0113 275.926 53.0856 275.979 53.1528C276.245 53.4995 276.577 53.779 276.839 54.1292C277.101 54.483 277.309 54.8651 277.49 55.2684C277.6 55.5125 277.971 55.3781 277.975 55.1375C277.978 54.5609 277.925 53.9099 277.55 53.4429C277.09 52.8698 276.368 53.0184 275.82 52.6257C275.749 52.5761 275.679 52.6823 275.732 52.7389C275.799 52.8238 275.884 52.891 275.972 52.9511Z" fill="white"/>
<path opacity="0.61" d="M267.485 51.0584C267.881 51.1044 268.281 51.2247 268.652 51.3662C268.815 51.4299 268.981 51.2954 269.034 51.1504C269.42 50.0537 268.574 48.9286 267.418 49.0029C267.393 48.9675 267.35 48.9428 267.308 48.9428C267.071 48.9569 266.968 49.1869 266.961 49.4062C266.947 49.8697 267.138 50.4039 267.227 50.8603C267.251 50.9877 267.372 51.0478 267.485 51.0584ZM268.49 50.6692C268.231 50.5985 267.97 50.5596 267.701 50.5383C267.648 50.3296 267.598 50.1173 267.541 49.9086C267.527 49.852 267.495 49.7636 267.46 49.668C268.069 49.6574 268.507 50.0996 268.49 50.6692Z" fill="white"/>
<path opacity="0.61" d="M271.097 55.5868C271.532 55.7284 271.727 55.0279 271.285 54.9005C270.669 54.7236 269.767 54.4866 269.668 53.7436C269.597 53.22 269.912 52.6858 269.742 52.1728C269.717 52.095 269.601 52.0455 269.544 52.1197C269.162 52.5974 269.01 53.6622 269.247 54.2283C269.579 55.0314 270.333 55.3321 271.097 55.5868Z" fill="white"/>
<path opacity="0.61" d="M271.812 55.2118C271.79 55.2083 271.773 55.2047 271.752 55.2012C271.582 55.18 271.518 55.4489 271.663 55.5231C272.134 55.7566 272.597 55.9265 272.972 56.3156C273.336 56.6942 273.648 57.1859 273.736 57.706C273.779 57.9501 274.168 57.9961 274.274 57.7768C274.656 56.9843 274.302 56.1069 273.715 55.5125C273.29 55.0809 272.243 54.5007 271.812 55.2118ZM273.736 56.5491C273.382 56.0538 272.93 55.6151 272.385 55.3781C272.986 55.4701 273.528 55.9654 273.736 56.5491Z" fill="white"/>
<path opacity="0.61" d="M274.766 60.5398C274.826 60.6318 274.996 60.6318 275.02 60.508C275.074 60.2391 274.982 59.9667 274.928 59.7049C274.872 59.4254 274.84 59.1282 274.699 58.8806C274.677 58.8417 274.624 58.8523 274.61 58.8912C274.518 59.1672 274.561 59.4679 274.589 59.7509C274.614 60.0127 274.621 60.3134 274.766 60.5398Z" fill="white"/>
<path opacity="0.61" d="M276.482 61.8878C276.383 61.8276 276.28 61.7816 276.17 61.7745C276.025 61.7639 275.926 61.9479 276.004 62.0647C276.156 62.3052 276.397 62.4538 276.552 62.6979C276.722 62.9633 276.768 63.2074 276.839 63.5081C276.991 64.1449 277.674 64.1944 277.876 64.8277C277.953 65.0718 278.378 65.0471 278.346 64.764C278.261 64.014 278.166 63.1083 277.798 62.4361C277.543 61.9727 276.991 61.9019 276.482 61.8878ZM277.451 63.6461C277.271 63.4798 277.306 63.2534 277.246 63.0376C277.189 62.8324 277.076 62.5741 276.924 62.3406C277.193 62.4644 277.419 62.6378 277.518 62.988C277.596 63.2569 277.66 63.5293 277.716 63.8017C277.628 63.7522 277.518 63.7098 277.451 63.6461Z" fill="white"/>
<path opacity="0.61" d="M280.313 73.7077C280.455 73.8669 280.752 73.7855 280.798 73.5803C280.953 72.8551 280.932 72.1227 280.769 71.401C280.72 71.1711 280.677 70.8244 280.511 70.6439C280.338 70.46 279.903 70.4104 279.676 70.3326C279.659 70.3255 279.644 70.329 279.627 70.3255C279.535 70.2123 279.326 70.1875 279.301 70.3715C279.206 71.0685 279.337 71.7513 279.453 72.4376C279.489 72.6534 279.475 72.9966 279.609 73.1735C279.775 73.3822 280.122 73.4883 280.313 73.7077ZM280.278 72.9541C280.207 72.9117 280.133 72.8692 280.055 72.8338C279.927 72.2041 279.814 71.5779 279.733 70.9411C279.832 70.9871 279.935 71.0331 280.037 71.0755C280.225 71.6947 280.306 72.3173 280.278 72.9541Z" fill="white"/>
<path opacity="0.61" d="M279.298 63.9149C279.33 64.4491 279.188 65.0541 279.319 65.5777C279.407 65.9386 279.57 66.1332 279.843 66.3808C280.341 66.8407 280.801 67.3007 281.279 67.7783C281.42 67.9198 281.668 67.7747 281.615 67.5837C281.481 67.1061 281.268 66.823 280.876 66.4976C280.486 66.1756 280.281 66.1084 280.005 65.6237C279.687 65.0647 279.765 64.7463 279.733 64.1272C279.687 63.2215 279.609 61.955 278.764 61.4384C278.71 61.4066 278.657 61.4667 278.686 61.5163C279.071 62.2911 279.248 63.0517 279.298 63.9149Z" fill="white"/>
<path opacity="0.61" d="M280.437 61.8948C280.455 61.955 280.479 62.0151 280.497 62.0753C280.55 62.2592 280.582 62.4538 280.688 62.6201C280.876 62.9137 281.293 63.1154 281.565 62.8076C281.785 62.5599 281.711 62.1849 281.534 61.9408C281.286 61.6047 280.851 61.5587 280.536 61.3182C280.256 61.1059 279.977 61.5835 280.26 61.7922C280.306 61.8311 280.37 61.863 280.437 61.8948ZM281.173 62.4361C281.173 62.4397 281.173 62.4432 281.173 62.4467C281.159 62.4361 281.137 62.429 281.127 62.4149C281.07 62.33 281.024 62.2557 280.985 62.1637C281.081 62.2309 281.152 62.3158 281.173 62.4361Z" fill="white"/>
<path opacity="0.61" d="M282.963 72.4659C283.476 72.5261 283.943 72.151 284.056 71.6593C284.169 71.164 283.918 70.7111 283.561 70.3927C283.564 70.3078 283.561 70.2229 283.55 70.1345C283.536 70.0425 283.409 70.0248 283.352 70.0814C283.31 70.1239 283.274 70.1769 283.235 70.2265C283.073 70.2512 282.959 70.4529 283.016 70.6262C282.828 71.0968 282.768 71.6628 282.701 72.1157C282.666 72.3102 282.768 72.4447 282.963 72.4659ZM283.508 71.4895C283.49 71.6451 283.409 71.7654 283.295 71.8397C283.334 71.6027 283.38 71.3656 283.433 71.1286C283.49 71.2347 283.522 71.3586 283.508 71.4895Z" fill="white"/>
<path opacity="0.61" d="M276.842 65.606C276.814 65.1885 276.627 64.7817 276.17 64.8171C276.054 64.8242 275.94 64.9621 276.022 65.0753C276.291 65.4468 276.28 65.6909 276.269 66.1402C276.255 66.6355 276.492 67.1202 276.375 67.6049C276.092 68.8007 274.642 68.5637 273.75 69.013C273.648 69.066 273.708 69.204 273.803 69.2111C274.967 69.3137 276.598 69.0413 276.896 67.711C276.949 67.4669 276.945 67.2122 276.906 66.9681C276.835 66.5011 276.874 66.0659 276.842 65.606Z" fill="white"/>
<path opacity="0.61" d="M280.348 77.6842C279.414 76.7219 280.083 76.8033 279.775 76.0922C279.517 75.4978 279.209 75.1441 278.806 74.6594C278.403 74.1747 277.568 73.2655 277.462 72.5579C277.324 71.6557 277.794 70.6934 278.205 69.9328C278.275 69.8054 278.091 69.6427 277.992 69.7701C276.821 71.21 276.747 72.4517 277.709 74.019C277.929 74.3763 278.212 74.6841 278.427 75.0379C279.011 75.6394 279.291 76.3222 279.259 77.0863C279.277 77.2597 279.326 77.4295 279.404 77.5887C279.722 78.1866 280.437 78.4059 280.847 78.9437C280.975 79.11 281.258 79.0711 281.261 78.8305C281.272 78.3989 281.233 78.3953 280.936 78.0734C280.78 77.9036 280.511 77.8505 280.348 77.6842Z" fill="white"/>
</g>
</svg>
