<svg width="21" height="23" viewBox="0 0 21 23" fill="none" xmlns="http://www.w3.org/2000/svg">
<path d="M19.3559 21.7502C19.3559 20.1414 19.3559 19.337 19.1583 18.6824C18.7134 17.2087 17.5657 16.0554 16.099 15.6084C15.4476 15.4098 14.6471 15.4098 13.0461 15.4098H7.30985C5.70879 15.4098 4.90827 15.4098 4.25686 15.6084C2.79022 16.0554 1.6425 17.2087 1.1976 18.6824C1 19.337 1 20.1414 1 21.7502M15.3406 6.18754C15.3406 9.05254 13.0292 11.3751 10.178 11.3751C7.32673 11.3751 5.01536 9.05254 5.01536 6.18754C5.01536 3.32254 7.32673 1 10.178 1C13.0292 1 15.3406 3.32254 15.3406 6.18754Z" stroke="#1B4079" stroke-width="1.7" stroke-linecap="round" stroke-linejoin="round"/>
</svg>
